<svg width="55" height="54" viewBox="0 0 55 54" fill="none" xmlns="http://www.w3.org/2000/svg">
<g clip-path="url(#clip0_1_53)">
<path d="M19.5358 51.9994C26.4463 51.9994 32.0482 46.3974 32.0482 39.487C32.0482 32.5766 26.4463 26.9746 19.5358 26.9746C12.6254 26.9746 7.02344 32.5766 7.02344 39.487C7.02344 46.3974 12.6254 51.9994 19.5358 51.9994Z" fill="#FB6A63"/>
<path d="M52.903 26.2795C52.9049 29.2959 51.7546 32.1991 49.6873 34.3956C47.62 36.5921 44.7918 37.916 41.7808 38.0968C41.7769 35.1142 40.8138 32.2119 39.0338 29.8186C37.2539 27.4253 34.7514 25.6678 31.896 24.8059C29.2767 24.009 26.4796 24.009 23.8603 24.8059C21.0049 25.6678 18.5025 27.4253 16.7225 29.8186C14.9425 32.2119 13.9795 35.1142 13.9755 38.0968H13.2804C10.515 38.189 7.82619 37.1788 5.80556 35.2886C3.78494 33.3983 2.59798 30.7828 2.5058 28.0174C2.41362 25.252 3.42377 22.5632 5.31403 20.5426C7.20429 18.5219 9.81982 17.335 12.5852 17.2428C12.5978 13.4239 14.0387 9.74785 16.6246 6.93764C19.2105 4.12743 22.7543 2.38643 26.559 2.05703C30.3637 1.72762 34.154 2.83366 37.1844 5.15761C40.2148 7.48157 42.2661 10.8553 42.9348 14.6152C45.7125 15.0552 48.2422 16.4715 50.0694 18.6096C51.8965 20.7476 52.9012 23.4671 52.903 26.2795Z" stroke="#12141D" stroke-width="2.5" stroke-linecap="round" stroke-linejoin="round"/>
<path d="M41.7821 38.0974C41.7858 38.9228 41.7113 39.7468 41.5596 40.5582C41.5596 40.9057 41.4206 41.2394 41.3372 41.5731C41.0857 42.5722 40.717 43.5382 40.2389 44.4509C39.9387 45.0293 39.5996 45.5867 39.224 46.1192L39.0015 46.439C38.8208 46.6892 38.6262 46.9256 38.4454 47.148C37.7805 47.9164 37.0347 48.6109 36.221 49.2195C33.8173 51.0298 30.8885 52.0061 27.8794 52.0001C25.9286 52.0049 23.9993 51.5925 22.221 50.7905C21.2707 50.3688 20.3706 49.8419 19.5378 49.2195C18.7198 48.6211 17.9775 47.9255 17.3273 47.148C17.1253 46.9216 16.935 46.6849 16.7573 46.439C16.2854 45.8124 15.8669 45.1474 15.506 44.4509C15.0279 43.5382 14.6592 42.5722 14.4077 41.5731C14.1159 40.4377 13.971 39.2696 13.9767 38.0974C13.9741 37.5768 14.0066 37.0565 14.074 36.5403C14.3398 34.0781 15.267 31.7337 16.7573 29.7558C16.938 29.5194 17.1187 29.297 17.3134 29.0746C17.9695 28.2896 18.7162 27.5849 19.5378 26.9753C20.8309 25.9789 22.2966 25.2295 23.8615 24.7647L24.8764 24.4867C26.8557 24.0604 28.9031 24.0604 30.8824 24.4867L31.8973 24.7647C33.4598 25.2353 34.9246 25.9842 36.221 26.9753C37.0385 27.5637 37.7809 28.25 38.4315 29.0189C38.6343 29.2544 38.8245 29.5004 39.0015 29.7558C40.8064 32.1623 41.7821 35.0893 41.7821 38.0974Z" stroke="#12141D" stroke-width="2.5" stroke-linecap="round" stroke-linejoin="round"/>
<path d="M24.026 43.8658C24.2345 44.0187 24.4708 44.1438 24.6933 44.2828C25.1376 44.5091 25.6033 44.6908 26.0836 44.825L26.598 44.9363C27.019 45.0198 27.4479 45.0571 27.877 45.0475M27.877 45.0475C29.382 45.0536 30.8474 44.5651 32.0478 43.6572C32.4549 43.3558 32.8279 43.0109 33.16 42.6284L33.4381 42.267L33.5493 42.0445C33.73 41.7943 33.8969 41.5023 34.0637 41.2243C34.29 40.7799 34.4716 40.3142 34.6059 39.834C34.6476 39.6672 34.7171 39.5003 34.7171 39.3196C34.7967 38.9168 34.834 38.5067 34.8283 38.0962L27.877 45.0475ZM27.877 31.1448C27.3731 31.1415 26.8702 31.1881 26.3755 31.2838L25.8611 31.4229C25.0793 31.655 24.3483 32.0323 23.7062 32.5351C23.2939 32.8457 22.9163 33.2 22.5801 33.5917C22.4853 33.6974 22.3971 33.8089 22.3159 33.9254C21.5519 34.9082 21.0711 36.0812 20.9257 37.3176C20.905 37.5767 20.905 37.8371 20.9257 38.0962L27.877 31.1448ZM27.877 31.1448C28.1361 31.1236 28.3965 31.1236 28.6555 31.1448C29.7563 31.2639 30.8111 31.6505 31.728 32.2709L27.877 31.1448Z" stroke="#12141D" stroke-width="2.5" stroke-linecap="round" stroke-linejoin="round"/>
<path d="M34.8278 35.3164L33.4375 36.7067H36.218L34.8278 35.3164Z" stroke="#12141D" stroke-width="2.5" stroke-linecap="round" stroke-linejoin="round"/>
<path d="M20.9254 40.8776L22.3157 39.4873H19.5352L20.9254 40.8776Z" stroke="#12141D" stroke-width="2.5" stroke-linecap="round" stroke-linejoin="round"/>
</g>
<defs>
<clipPath id="clip0_1_53">
<rect width="54" height="54" fill="white" transform="translate(0.5)"/>
</clipPath>
</defs>
</svg>
