<svg width="131" height="25" viewBox="0 0 131 25" fill="none" xmlns="http://www.w3.org/2000/svg">
<path d="M3 8.68V16.33C3 16.98 3.46 17.76 4.03 18.08L11.03 21.97C11.56 22.27 12.44 22.27 12.97 21.97L19.97 18.08C20.54 17.77 21 16.98 21 16.33V8.68C21 8.03 20.54 7.25 19.97 6.93L12.97 3.04C12.44 2.74 11.56 2.74 11.03 3.04L4.03 6.93C3.46 7.24 3 8.03 3 8.68Z" fill="#F5F5F5"/>
<path d="M36.5966 18L33.3125 6.36364H35.5795L37.6761 14.9148H37.7841L40.0227 6.36364H42.0852L44.3295 14.9205H44.4318L46.5284 6.36364H48.7955L45.5114 18H43.4318L41.1023 9.83523H41.0114L38.6761 18H36.5966ZM53.1392 18.1705C52.2642 18.1705 51.5085 17.9886 50.8722 17.625C50.2396 17.2576 49.7528 16.7386 49.4119 16.0682C49.071 15.3939 48.9006 14.6004 48.9006 13.6875C48.9006 12.7898 49.071 12.0019 49.4119 11.3239C49.7566 10.642 50.2377 10.1117 50.8551 9.73295C51.4725 9.35038 52.1979 9.15909 53.0312 9.15909C53.5691 9.15909 54.0767 9.24621 54.554 9.42045C55.035 9.59091 55.4593 9.85606 55.8267 10.2159C56.1979 10.5758 56.4896 11.0341 56.7017 11.5909C56.9138 12.1439 57.0199 12.803 57.0199 13.5682V14.1989H49.8665V12.8125H55.0483C55.0445 12.4186 54.9593 12.0682 54.7926 11.7614C54.6259 11.4508 54.393 11.2064 54.0938 11.0284C53.7983 10.8504 53.4536 10.7614 53.0597 10.7614C52.6392 10.7614 52.2699 10.8636 51.9517 11.0682C51.6335 11.2689 51.3854 11.5341 51.2074 11.8636C51.0331 12.1894 50.9441 12.5473 50.9403 12.9375V14.1477C50.9403 14.6553 51.0331 15.0909 51.2188 15.4545C51.4044 15.8144 51.6638 16.0909 51.9972 16.2841C52.3305 16.4735 52.7206 16.5682 53.1676 16.5682C53.4669 16.5682 53.7377 16.5265 53.9801 16.4432C54.2225 16.3561 54.4328 16.2292 54.6108 16.0625C54.7888 15.8958 54.9233 15.6894 55.0142 15.4432L56.9347 15.6591C56.8134 16.1667 56.5824 16.6098 56.2415 16.9886C55.9044 17.3636 55.4725 17.6553 54.946 17.8636C54.4195 18.0682 53.8172 18.1705 53.1392 18.1705ZM58.8509 18V6.36364H60.9077V10.7159H60.9929C61.099 10.5038 61.2486 10.2784 61.4418 10.0398C61.6349 9.79735 61.8963 9.59091 62.2259 9.42045C62.5554 9.24621 62.9759 9.15909 63.4872 9.15909C64.1615 9.15909 64.7694 9.33144 65.3111 9.67614C65.8565 10.017 66.2884 10.5227 66.6065 11.1932C66.9285 11.8598 67.0895 12.678 67.0895 13.6477C67.0895 14.6061 66.9323 15.4205 66.6179 16.0909C66.3035 16.7614 65.8755 17.2727 65.3338 17.625C64.7921 17.9773 64.1785 18.1534 63.4929 18.1534C62.9929 18.1534 62.5781 18.0701 62.2486 17.9034C61.919 17.7367 61.6539 17.536 61.4531 17.3011C61.2562 17.0625 61.1027 16.8371 60.9929 16.625H60.8736V18H58.8509ZM60.8679 13.6364C60.8679 14.2008 60.9474 14.6951 61.1065 15.1193C61.2694 15.5436 61.5024 15.875 61.8054 16.1136C62.1122 16.3485 62.4834 16.4659 62.919 16.4659C63.3736 16.4659 63.7543 16.3447 64.0611 16.1023C64.3679 15.8561 64.599 15.5208 64.7543 15.0966C64.9134 14.6686 64.9929 14.1818 64.9929 13.6364C64.9929 13.0947 64.9152 12.6136 64.7599 12.1932C64.6046 11.7727 64.3736 11.4432 64.0668 11.2045C63.7599 10.9659 63.3774 10.8466 62.919 10.8466C62.4796 10.8466 62.1065 10.9621 61.7997 11.1932C61.4929 11.4242 61.2599 11.7481 61.1009 12.1648C60.9455 12.5814 60.8679 13.072 60.8679 13.6364ZM74.8636 12.8864V18H72.8068V6.36364H74.8182V10.7557H74.9205C75.125 10.2633 75.4413 9.875 75.8693 9.59091C76.3011 9.30303 76.8504 9.15909 77.517 9.15909C78.1231 9.15909 78.6515 9.28598 79.1023 9.53977C79.553 9.79356 79.9015 10.1648 80.1477 10.6534C80.3977 11.142 80.5227 11.7386 80.5227 12.4432V18H78.4659V12.7614C78.4659 12.1742 78.3144 11.7178 78.0114 11.392C77.7121 11.0625 77.2917 10.8977 76.75 10.8977C76.3864 10.8977 76.0606 10.9773 75.7727 11.1364C75.4886 11.2917 75.2652 11.517 75.1023 11.8125C74.9432 12.108 74.8636 12.4659 74.8636 12.8864ZM86.4261 18.1705C85.5739 18.1705 84.8352 17.983 84.2102 17.608C83.5852 17.233 83.1004 16.7083 82.7557 16.0341C82.4148 15.3598 82.2443 14.572 82.2443 13.6705C82.2443 12.7689 82.4148 11.9792 82.7557 11.3011C83.1004 10.6231 83.5852 10.0966 84.2102 9.72159C84.8352 9.34659 85.5739 9.15909 86.4261 9.15909C87.2784 9.15909 88.017 9.34659 88.642 9.72159C89.267 10.0966 89.75 10.6231 90.0909 11.3011C90.4356 11.9792 90.608 12.7689 90.608 13.6705C90.608 14.572 90.4356 15.3598 90.0909 16.0341C89.75 16.7083 89.267 17.233 88.642 17.608C88.017 17.983 87.2784 18.1705 86.4261 18.1705ZM86.4375 16.5227C86.8996 16.5227 87.286 16.3958 87.5966 16.142C87.9072 15.8845 88.1383 15.5398 88.2898 15.108C88.4451 14.6761 88.5227 14.1951 88.5227 13.6648C88.5227 13.1307 88.4451 12.6477 88.2898 12.2159C88.1383 11.7803 87.9072 11.4337 87.5966 11.1761C87.286 10.9186 86.8996 10.7898 86.4375 10.7898C85.964 10.7898 85.5701 10.9186 85.2557 11.1761C84.9451 11.4337 84.7121 11.7803 84.5568 12.2159C84.4053 12.6477 84.3295 13.1307 84.3295 13.6648C84.3295 14.1951 84.4053 14.6761 84.5568 15.108C84.7121 15.5398 84.9451 15.8845 85.2557 16.142C85.5701 16.3958 85.964 16.5227 86.4375 16.5227ZM99.2514 11.5795L97.3764 11.7841C97.3234 11.5947 97.2306 11.4167 97.098 11.25C96.9692 11.0833 96.795 10.9489 96.5753 10.8466C96.3556 10.7443 96.0866 10.6932 95.7685 10.6932C95.3404 10.6932 94.9806 10.786 94.6889 10.9716C94.401 11.1572 94.259 11.3977 94.2628 11.6932C94.259 11.947 94.3518 12.1534 94.5412 12.3125C94.7344 12.4716 95.0526 12.6023 95.4957 12.7045L96.9844 13.0227C97.8101 13.2008 98.4238 13.483 98.8253 13.8693C99.2306 14.2557 99.4351 14.7614 99.4389 15.3864C99.4351 15.9356 99.2741 16.4205 98.956 16.8409C98.6416 17.2576 98.2041 17.5833 97.6435 17.8182C97.0829 18.053 96.4389 18.1705 95.7116 18.1705C94.6435 18.1705 93.7836 17.947 93.1321 17.5C92.4806 17.0492 92.0923 16.4223 91.9673 15.6193L93.973 15.4261C94.0639 15.8201 94.2571 16.1174 94.5526 16.3182C94.848 16.5189 95.2325 16.6193 95.706 16.6193C96.1946 16.6193 96.5866 16.5189 96.8821 16.3182C97.1813 16.1174 97.331 15.8693 97.331 15.5739C97.331 15.3239 97.2344 15.1174 97.0412 14.9545C96.8518 14.7917 96.5563 14.6667 96.1548 14.5795L94.6662 14.267C93.8291 14.0928 93.2098 13.7992 92.8082 13.3864C92.4067 12.9697 92.2079 12.4432 92.2116 11.8068C92.2079 11.2689 92.3537 10.803 92.6491 10.4091C92.9484 10.0114 93.3632 9.70455 93.8935 9.48864C94.4276 9.26894 95.0431 9.15909 95.7401 9.15909C96.7628 9.15909 97.5677 9.37689 98.1548 9.8125C98.7457 10.2481 99.1113 10.8371 99.2514 11.5795ZM105.493 9.27273V10.8636H100.476V9.27273H105.493ZM101.714 7.18182H103.771V15.375C103.771 15.6515 103.813 15.8636 103.896 16.0114C103.983 16.1553 104.097 16.2538 104.237 16.3068C104.377 16.3598 104.533 16.3864 104.703 16.3864C104.832 16.3864 104.949 16.3769 105.055 16.358C105.165 16.339 105.249 16.322 105.305 16.3068L105.652 17.9148C105.542 17.9527 105.385 17.9943 105.18 18.0398C104.98 18.0852 104.733 18.1117 104.442 18.1193C103.927 18.1345 103.463 18.0568 103.05 17.8864C102.637 17.7121 102.309 17.4432 102.067 17.0795C101.828 16.7159 101.711 16.2614 101.714 15.7159V7.18182ZM107.213 18V9.27273H109.27V18H107.213ZM108.247 8.03409C107.921 8.03409 107.641 7.92614 107.406 7.71023C107.171 7.49053 107.054 7.22727 107.054 6.92045C107.054 6.60985 107.171 6.34659 107.406 6.13068C107.641 5.91098 107.921 5.80114 108.247 5.80114C108.577 5.80114 108.857 5.91098 109.088 6.13068C109.323 6.34659 109.44 6.60985 109.44 6.92045C109.44 7.22727 109.323 7.49053 109.088 7.71023C108.857 7.92614 108.577 8.03409 108.247 8.03409ZM113.442 12.8864V18H111.385V9.27273H113.351V10.7557H113.453C113.654 10.267 113.974 9.87879 114.413 9.59091C114.857 9.30303 115.404 9.15909 116.055 9.15909C116.658 9.15909 117.182 9.28788 117.629 9.54545C118.08 9.80303 118.429 10.1761 118.675 10.6648C118.925 11.1534 119.048 11.7462 119.044 12.4432V18H116.987V12.7614C116.987 12.178 116.836 11.7216 116.533 11.392C116.233 11.0625 115.819 10.8977 115.288 10.8977C114.929 10.8977 114.608 10.9773 114.328 11.1364C114.052 11.2917 113.834 11.517 113.675 11.8125C113.519 12.108 113.442 12.4659 113.442 12.8864ZM124.93 21.4545C124.192 21.4545 123.557 21.3542 123.027 21.1534C122.497 20.9564 122.071 20.6913 121.749 20.358C121.427 20.0246 121.203 19.6553 121.078 19.25L122.93 18.8011C123.014 18.9716 123.135 19.1402 123.294 19.3068C123.453 19.4773 123.667 19.6174 123.936 19.7273C124.209 19.8409 124.552 19.8977 124.964 19.8977C125.548 19.8977 126.031 19.7557 126.413 19.4716C126.796 19.1913 126.987 18.7292 126.987 18.0852V16.4318H126.885C126.779 16.6439 126.624 16.8617 126.419 17.0852C126.218 17.3087 125.951 17.4962 125.618 17.6477C125.288 17.7992 124.874 17.875 124.374 17.875C123.703 17.875 123.095 17.7178 122.55 17.4034C122.008 17.0852 121.576 16.6117 121.254 15.983C120.936 15.3504 120.777 14.5587 120.777 13.608C120.777 12.6496 120.936 11.8409 121.254 11.1818C121.576 10.5189 122.01 10.017 122.555 9.67614C123.101 9.33144 123.709 9.15909 124.379 9.15909C124.891 9.15909 125.311 9.24621 125.641 9.42045C125.974 9.59091 126.239 9.79735 126.436 10.0398C126.633 10.2784 126.783 10.5038 126.885 10.7159H126.999V9.27273H129.027V18.142C129.027 18.8883 128.849 19.5057 128.493 19.9943C128.137 20.483 127.65 20.8485 127.033 21.0909C126.415 21.3333 125.714 21.4545 124.93 21.4545ZM124.947 16.2614C125.383 16.2614 125.754 16.1553 126.061 15.9432C126.368 15.7311 126.601 15.4261 126.76 15.0284C126.919 14.6307 126.999 14.1534 126.999 13.5966C126.999 13.0473 126.919 12.5663 126.76 12.1534C126.605 11.7405 126.374 11.4205 126.067 11.1932C125.764 10.9621 125.391 10.8466 124.947 10.8466C124.489 10.8466 124.107 10.9659 123.8 11.2045C123.493 11.4432 123.262 11.7708 123.107 12.1875C122.951 12.6004 122.874 13.0701 122.874 13.5966C122.874 14.1307 122.951 14.5985 123.107 15C123.266 15.3977 123.499 15.7083 123.805 15.9318C124.116 16.1515 124.497 16.2614 124.947 16.2614Z" fill="white"/>
</svg>
