<svg width="55" height="54" viewBox="0 0 55 54" fill="none" xmlns="http://www.w3.org/2000/svg">
<g clip-path="url(#clip0_1_48)">
<path d="M40.3915 51.9997C47.302 51.9997 52.904 46.3977 52.904 39.4872C52.904 32.5767 47.302 26.9746 40.3915 26.9746C33.481 26.9746 27.8789 32.5767 27.8789 39.4872C27.8789 46.3977 33.481 51.9997 40.3915 51.9997Z" fill="#FFC947"/>
<path d="M52.9036 26.2798C52.8999 29.4129 51.6537 32.4165 49.4383 34.6319C47.2229 36.8473 44.2192 38.0936 41.0862 38.0972H39.0008V26.975C39.0008 24.6671 34.0235 22.8041 27.8785 22.8041C21.7334 22.8041 16.7562 24.6671 16.7562 26.975V38.0972H13.2805C10.5151 38.1894 7.82625 37.1793 5.8056 35.289C3.78496 33.3987 2.59798 30.7831 2.5058 28.0177C2.41362 25.2522 3.42378 22.5634 5.31406 20.5428C7.20435 18.5221 9.81991 17.3352 12.5854 17.243C12.5979 13.424 14.0388 9.74795 16.6248 6.9377C19.2107 4.12746 22.7545 2.38643 26.5593 2.05703C30.364 1.72762 34.1544 2.83367 37.1848 5.15765C40.2153 7.48164 42.2666 10.8554 42.9353 14.6153C45.713 15.0554 48.2428 16.4717 50.07 18.6098C51.8971 20.7478 52.9018 23.4674 52.9036 26.2798Z" stroke="#12141D" stroke-width="2.5" stroke-linecap="round" stroke-linejoin="round"/>
<path d="M39.0004 33.926V40.8774C39.0004 42.2677 37.0262 43.658 34.0371 44.3531C29.9835 45.2802 25.7728 45.2802 21.7192 44.3531C18.7301 43.658 16.7559 42.2677 16.7559 40.8774V33.926C16.7559 35.3163 18.7301 36.7066 21.7192 37.4017C25.7728 38.3288 29.9835 38.3288 34.0371 37.4017C37.0262 36.7066 39.0004 35.3163 39.0004 33.926ZM39.0004 26.9746C39.0004 28.3648 37.0262 29.7551 34.0371 30.4503C29.9835 31.3774 25.7728 31.3774 21.7192 30.4503C18.7301 29.7551 16.7559 28.3648 16.7559 26.9746C16.7559 24.6667 21.7331 22.8037 27.8781 22.8037C34.0232 22.8037 39.0004 24.6667 39.0004 26.9746Z" stroke="#12141D" stroke-width="2.5" stroke-linecap="round" stroke-linejoin="round"/>
<path d="M39.0004 26.9746V33.926C39.0004 35.3163 37.0262 36.7066 34.0371 37.4017C29.9835 38.3288 25.7728 38.3288 21.7192 37.4017C18.7301 36.7066 16.7559 35.3163 16.7559 33.926V26.9746C16.7559 28.3649 18.7301 29.7552 21.7192 30.4503C25.7728 31.3774 29.9835 31.3774 34.0371 30.4503C37.0262 29.7552 39.0004 28.3649 39.0004 26.9746ZM39.0004 40.8775V47.8289C39.0004 50.1367 34.0232 51.9997 27.8781 51.9997C21.7331 51.9997 16.7559 50.1367 16.7559 47.8289V40.8775C16.7559 42.2677 18.7301 43.658 21.7192 44.3532C25.7728 45.2803 29.9835 45.2803 34.0371 44.3532C37.0262 43.658 39.0004 42.2677 39.0004 40.8775Z" stroke="#12141D" stroke-width="2.5" stroke-linecap="round" stroke-linejoin="round"/>
</g>
<defs>
<clipPath id="clip0_1_48">
<rect width="54" height="54" fill="white" transform="translate(0.5)"/>
</clipPath>
</defs>
</svg>
