<svg width="48" height="50" viewBox="0 0 48 50" fill="none" xmlns="http://www.w3.org/2000/svg">
<g clip-path="url(#clip0_1_73)">
<path d="M35.5 45.5C41.7132 45.5 46.75 40.4632 46.75 34.25C46.75 28.0368 41.7132 23 35.5 23C29.2868 23 24.25 28.0368 24.25 34.25C24.25 40.4632 29.2868 45.5 35.5 45.5Z" fill="#61A3F2"/>
<path d="M43.3985 7.82684C36.2698 7.82684 26.8856 5.42118 23.5439 0.963142C23.0975 0.421074 22.296 0.343689 21.7539 0.790054C21.6907 0.842018 21.6328 0.899963 21.5808 0.963142C18.2387 5.42118 8.85495 7.82684 1.72582 7.82684C1.0488 7.82684 0.5 8.37564 0.5 9.05266V24.9865C0.5 38.4641 12.2038 46.5888 22.2246 49.4521C22.4452 49.516 22.6792 49.516 22.8997 49.4521C32.9205 46.5888 44.6243 38.4641 44.6243 24.9865V9.05266C44.6243 8.37564 44.0755 7.82684 43.3985 7.82684ZM42.1731 24.9865C42.1731 36.9508 31.6876 44.286 22.5622 46.9982C13.4367 44.286 2.95127 36.9508 2.95127 24.9865V10.2568C10.0348 10.0172 18.4133 7.73338 22.5622 3.56096C26.7107 7.73338 35.0892 10.0172 42.1731 10.2568V24.9865Z" fill="#12141D"/>
<path d="M19.7517 24.1202C19.2814 23.633 18.5057 23.6196 18.0186 24.0899C17.5319 24.5602 17.5184 25.3359 17.9883 25.823C17.9984 25.8331 18.0085 25.8432 18.0186 25.8529L20.4699 28.3045C20.9484 28.7831 21.7241 28.7834 22.2026 28.3049L27.1059 23.4016C27.5926 22.9313 27.6061 22.1556 27.1358 21.6685C26.6659 21.1818 25.8898 21.1683 25.4031 21.6382C25.3926 21.6483 25.3825 21.6584 25.3728 21.6685L21.3364 25.7045L19.7517 24.1202Z" fill="#12141D"/>
<path d="M10.3047 24.9868C10.3047 31.7559 15.7923 37.2435 22.5614 37.2435C29.3309 37.2435 34.8181 31.7559 34.8181 24.9868C34.8181 18.2173 29.3309 12.7297 22.5614 12.7297C15.7956 12.738 10.3125 18.2207 10.3047 24.9868ZM32.3669 24.9868C32.3669 30.4019 27.9769 34.7919 22.5614 34.7919C17.1463 34.7919 12.7563 30.4019 12.7563 24.9868C12.7563 19.5714 17.1463 15.1814 22.5614 15.1814C27.9746 15.1866 32.3616 19.5736 32.3669 24.9868Z" fill="#12141D"/>
</g>
<defs>
<clipPath id="clip0_1_73">
<rect width="47" height="49" fill="white" transform="translate(0.5 0.5)"/>
</clipPath>
</defs>
</svg>
